<?xml version="1.0" encoding="utf-8"?>
<svg xmlns="http://www.w3.org/2000/svg">
  <defs>
    <symbol id="image-upload" viewBox="0 0 24 24">
       <path stroke-linecap="round" stroke-linejoin="round" d="m2.25 15.75 5.159-5.159a2.25 2.25 0 0 1 3.182 0l5.159 5.159m-1.5-1.5 1.409-1.409a2.25 2.25 0 0 1 3.182 0l2.909 2.909m-18 3.75h16.5a1.5 1.5 0 0 0 1.5-1.5V6a1.5 1.5 0 0 0-1.5-1.5H3.75A1.5 1.5 0 0 0 2.25 6v12a1.5 1.5 0 0 0 1.5 1.5Zm10.5-11.25h.008v.008h-.008V8.25Zm.375 0a.375.375 0 1 1-.75 0 .375.375 0 0 1 .75 0Z" />
    </symbol>
    
    <symbol id="send-icon" viewBox="0 0 24 24">
      <path stroke-linecap="round" stroke-linejoin="round" d="M6 12 3.269 3.125A59.769 59.769 0 0 1 21.485 12 59.768 59.768 0 0 1 3.27 20.875L5.999 12Zm0 0h7.5" />
    </symbol>

    <symbol id="remove-icon" viewBox="0 0 24 24">
      <path stroke-linecap="round" stroke-linejoin="round" d="M6 18 18 6M6 6l12 12" />
    </symbol>

    <symbol id="logout-icon" viewBox="0 0 24 24">
      <path stroke-linecap="round" stroke-linejoin="round" d="M5.636 5.636a9 9 0 1 0 12.728 0M12 3v9" />
    </symbol>

    <symbol id="attachment-icon" viewBox="0 0 24 24">
      <path stroke-linecap="round" stroke-linejoin="round" d="m18.375 12.739-7.693 7.693a4.5 4.5 0 0 1-6.364-6.364l10.94-10.94A3 3 0 1 1 19.5 7.372L8.552 18.32m.009-.01-.01.01m5.699-9.941-7.81 7.81a1.5 1.5 0 0 0 2.112 2.13" />
    </symbol>

    <symbol id="back-icon" viewBox="0 0 24 24">
      <path stroke-linecap="round" stroke-linejoin="round" d="M15.75 19.5 8.25 12l7.5-7.5" />
    </symbol>

    <symbol id="moon-icon" viewBox="0 0 24 24">
      <path stroke-linecap="round" stroke-linejoin="round" d="M21.752 15.002A9.72 9.72 0 0 1 18 15.75c-5.385 0-9.75-4.365-9.75-9.75 0-1.33.266-2.597.748-3.752A9.753 9.753 0 0 0 3 11.25C3 16.635 7.365 21 12.75 21a9.753 9.753 0 0 0 9.002-5.998Z" />
    </symbol>

    <symbol id="sun-icon" viewBox="0 0 24 24">
      <path stroke-linecap="round" stroke-linejoin="round" d="M12 3v2.25m6.364.386-1.591 1.591M21 12h-2.25m-.386 6.364-1.591-1.591M12 18.75V21m-4.773-4.227-1.591 1.591M5.25 12H3m4.227-4.773L5.636 5.636M15.75 12a3.75 3.75 0 1 1-7.5 0 3.75 3.75 0 0 1 7.5 0Z" />
    </symbol>
  </defs>
</svg>
